<svg xmlns="http://www.w3.org/2000/svg" viewBox="0 0 64 64" fill="none">
  <defs>
    <linearGradient id="grad" x1="0%" y1="0%" x2="100%" y2="100%">
      <stop offset="0%" stop-color="#3B0764" />
      <stop offset="50%" stop-color="#1E1B4B" />
      <stop offset="100%" stop-color="#4F46E5" />
    </linearGradient>
  </defs>
  <rect width="64" height="64" rx="16" fill="url(#grad)" />
  <!-- Medical Shield & Academic Open Book Motif -->
  <path d="M32 14C24 14 18 16.5 18 20V43C18 45.5 23.5 48 32 46C40.5 48 46 45.5 46 43V20C46 16.5 40 14 32 14Z" fill="white" fill-opacity="0.12"/>
  <path d="M32 20C26 20 20 22 20 25.5V44C20 45.5 26 47 32 45C38 47 44 45.5 44 44V25.5C44 22 38 20 32 20Z" stroke="white" stroke-width="2.5" stroke-linecap="round" stroke-linejoin="round"/>
  <!-- Central spine -->
  <line x1="32" y1="20" x2="32" y2="45" stroke="white" stroke-width="2.2" stroke-linecap="round"/>
  <!-- Medical Cross Motif subtle inside book -->
  <path d="M32 27V37M27 32H37" stroke="#A5B4FC" stroke-width="2.5" stroke-linecap="round"/>
</svg>
